<svg id="Layer_1" data-name="Layer 1" xmlns="http://www.w3.org/2000/svg" viewBox="0 0 182.47 50"><defs><style>.cls-1{fill:#c6c6c6;}</style></defs><path class="cls-1" d="M85.26,18.05c-.07,0-.15-.1-.25-.29a4.71,4.71,0,0,1-.45-2.11,6.1,6.1,0,0,1,.85-3,23.49,23.49,0,0,1,1.28-2.11,2.93,2.93,0,0,1-1.11-.22A1.43,1.43,0,0,1,85,9.66a1.35,1.35,0,0,1-.16-.6.4.4,0,0,1,.1-.28.37.37,0,0,1,.27-.11.8.8,0,0,1,.35.14,4.53,4.53,0,0,0,1.88.58c.8-1.16,1.74-2.37,2.81-3.66a1.43,1.43,0,0,1,1-.59,1.29,1.29,0,0,1,.68.22.65.65,0,0,1,.35.52,1.21,1.21,0,0,1-.44.78A31.07,31.07,0,0,0,89.4,9.49h.31c.39,0,1.09,0,2.08-.08l.64,0c.11,0,.17,0,.17.1s-.11.2-.31.36a3.47,3.47,0,0,1-1.39.47,19,19,0,0,1-2.31.25c-.26.36-.66,1-1.2,1.9a13.14,13.14,0,0,0-2,5.31C85.38,18,85.33,18.05,85.26,18.05Z"/><path class="cls-1" d="M91.19,16.48c-.3,0-.45-.28-.45-.83A5,5,0,0,1,91,14.16a29.29,29.29,0,0,1,2.84-5.74,31.19,31.19,0,0,1,4.62-6,1.54,1.54,0,0,1,1.07-.56,1.49,1.49,0,0,1,.87.27.59.59,0,0,1,.31.47,1.31,1.31,0,0,1-.48.81A46.26,46.26,0,0,0,94,11.19q-.45.71-1.32,2.31a16.31,16.31,0,0,1,3.68-2.95,4,4,0,0,1,1.73-.64,1.18,1.18,0,0,1,.81.31,1,1,0,0,1,.35.74,2.25,2.25,0,0,1-.25.87,6.62,6.62,0,0,0-.7,2.29.58.58,0,0,0,.48.66c.16.05.24.09.24.15s-.09.17-.28.23a2.1,2.1,0,0,1-.56.08,1.35,1.35,0,0,1-1.11-.49,2,2,0,0,1-.4-1.35,6.5,6.5,0,0,1,.12-1.14c.08-.44.13-.67.13-.7s-.05-.16-.15-.16a.69.69,0,0,0-.35.1,12.72,12.72,0,0,0-2.51,1.94A14.46,14.46,0,0,0,91.71,16C91.53,16.33,91.36,16.48,91.19,16.48Z"/><path class="cls-1" d="M103.86,16.4a2.55,2.55,0,0,1-1.63-.57,1.72,1.72,0,0,1-.73-1.42,4.24,4.24,0,0,1,.92-2.34,8.51,8.51,0,0,1,2.31-2.24,4.69,4.69,0,0,1,2.58-.93,2.45,2.45,0,0,1,1.38.4,1.14,1.14,0,0,1,.62,1c0,.55-.42,1.1-1.28,1.65a4.67,4.67,0,0,1-2.54.83,2.17,2.17,0,0,1-1.32-.37,4.16,4.16,0,0,0-1.18,2.5c0,.48.26.72.77.72a4.19,4.19,0,0,0,2-.68,6.19,6.19,0,0,0,1.76-1.43.38.38,0,0,1,.25-.14c.09,0,.13.05.13.16a1.75,1.75,0,0,1-.15.4,4,4,0,0,1-1.58,1.73A4.16,4.16,0,0,1,103.86,16.4Zm1.42-4.32a3.18,3.18,0,0,0,1.93-.79c.67-.52,1-.93,1-1.24,0-.15-.09-.22-.27-.22a3.28,3.28,0,0,0-1.52.59,10.05,10.05,0,0,0-1.83,1.49A1.52,1.52,0,0,0,105.28,12.08Z"/><path class="cls-1" d="M34.93,24.79a12.31,12.31,0,1,0-.8,13.34,9.45,9.45,0,0,1,.8-13.34Zm-8.7,15L22,32.89v6.86H17.82L17.8,24h6c3.41,0,5.85,2.3,5.85,5.13a4.76,4.76,0,0,1-2.73,4.32l4.23,6.34Z"/><path class="cls-1" d="M23.71,27.73H22v3.16h1.72a1.59,1.59,0,1,0,0-3.17Z"/><path class="cls-1" d="M33,31.87a8.34,8.34,0,0,1,8.67-8.33,8.31,8.31,0,1,1,0,16.61A8.32,8.32,0,0,1,33,31.87Zm13.09,0a4.43,4.43,0,1,0-4.42,4.3A4.3,4.3,0,0,0,46.06,31.84Z"/><path class="cls-1" d="M53.23,34V24h4.22V34a2.24,2.24,0,0,0,2.32,2.18A2.27,2.27,0,0,0,62.11,34V24h4.23V34a6.25,6.25,0,0,1-6.56,6.18A6.25,6.25,0,0,1,53.23,34Z"/><path class="cls-1" d="M83.59,23.94v16H82.26L74.14,32v7.72h-4.2v-16H71.3l8.09,7.84v-7.7Z"/><path class="cls-1" d="M101.14,31.87c0,4.9-3.28,7.88-8.65,7.88H87.34V24h5.15C97.86,23.94,101.14,26.94,101.14,31.87Zm-4.2,0c0-2.48-1.73-4-4.56-4h-1V35.8h1C95.22,35.8,96.94,34.31,96.94,31.86Z"/><path class="cls-1" d="M125.17,37.91h-5.89l-.81,1.84h-4.58l7.34-16h2l7.34,16H126Zm-1.33-3.07-1.61-3.74-1.63,3.74Z"/><path class="cls-1" d="M145.14,34.93a5,5,0,0,1-5.26,4.82h-6.74V24h5.19c2.86,0,5,1.93,5,4.1,0,1.63-1.08,2.79-1.72,2.79A4,4,0,0,1,145.14,34.93Zm-6.93-7.33h-1v2.48h1c.91,0,1.59-.45,1.59-1.26S139.11,27.6,138.21,27.6Zm2.92,6.83c0-.92-.67-1.48-1.85-1.48h-2.1v3h2.07C140.21,35.94,141.13,35.47,141.13,34.43Z"/><path class="cls-1" d="M158.17,35.81v3.94H147.93V24h4.19V35.81Z"/><path class="cls-1" d="M165.09,27.86v2.2h5v3.5h-5v2.26h6.1v3.93H161V24h10.24v3.9Z"/><path class="cls-1" d="M174.38,48.41H9.67a4,4,0,0,1-4-4V16.06a4,4,0,0,1,4-4H73.38v.9H9.67a3.13,3.13,0,0,0-3.12,3.13V44.38a3.13,3.13,0,0,0,3.12,3.13H174.38a3.13,3.13,0,0,0,3.13-3.13V16.06a3.13,3.13,0,0,0-3.13-3.13h-57V12h57a4,4,0,0,1,4,4V44.38A4,4,0,0,1,174.38,48.41Z"/><polygon class="cls-1" points="102.45 23.96 102.45 27.88 106.25 27.88 106.25 36.01 106.25 39.75 106.25 47.96 110.44 47.96 110.44 39.75 110.45 39.75 110.45 27.88 114.23 27.88 114.23 23.96 102.45 23.96"/></svg>